#!OML:ASF F:\VICON\USERDATA\INSTALL\rory3\rory3.ASF
:FULLY-SPECIFIED
:DEGREES
366
root 3.5791 17.9251 8.16707 355.005 19.2216 357.492
lowerback 11.6173 0.0209231 -4.20151
upperback 1.05742 -0.391794 1.96777
thorax -5.36819 -0.0727737 4.51236
lowerneck -9.85461 -10.9659 -14.434
upperneck 30.4471 -17.5756 14.7516
head 14.9735 -7.66926 5.50326
rclavicle -5.37495e-014 7.35503e-015
rhumerus -43.743 -28.2292 -66.8862
rradius 31.3623
rwrist 6.9051
rhand -22.9923 7.94985
rfingers 7.12502
rthumb 3.45055 -22.002
lclavicle -5.37495e-014 7.35503e-015
lhumerus -32.5408 8.16827 78.7291
lradius 28.9687
lwrist -6.27534
lhand -19.3838 28.1415
lfingers 7.12502
lthumb 6.93463 58.0079
rfemur -9.16328 -2.66808 4.75966
rtibia 28.4685
rfoot 0.374243 -11.0034
rtoes 18.4928
lfemur -0.81146 -3.51211 -14.4068
ltibia 21.7199
lfoot -11.6942 2.0956
ltoes -15.1094
367
root 3.52154 17.9292 8.20546 354.945 18.9428 357.471
lowerback 11.5694 0.0468897 -4.12892
upperback 1.07957 -0.3473 1.94616
thorax -5.32343 -0.0544272 4.43985
lowerneck -9.69186 -10.9136 -14.3442
upperneck 30.3373 -17.527 14.7796
head 14.8673 -7.64708 5.51316
rclavicle 5.20365e-014 5.2181e-015
rhumerus -43.9576 -28.3731 -66.7189
rradius 31.3944
rwrist 7.0624
rhand -22.8146 7.86292
rfingers 7.12502
rthumb 3.6221 -22.0861
lclavicle 5.20365e-014 5.2181e-015
lhumerus -32.6734 8.06643 78.5161
lradius 29.0941
lwrist -6.37643
lhand -19.8312 28.8234
lfingers 7.12502
lthumb 6.50277 58.7036
rfemur -8.84138 -2.50007 4.438
rtibia 28.1328
rfoot 0.897585 -11.9732
rtoes 19.984
lfemur -0.459548 -3.60474 -14.1792
ltibia 21.403
lfoot -11.4601 2.47385
ltoes -16.1103
368
root 3.46058 17.936 8.24632 354.816 18.6347 357.219
lowerback 11.5264 0.0811144 -3.86675
upperback 1.08822 -0.26276 2.01378
thorax -5.30017 -0.0186349 4.34792
lowerneck -9.66528 -10.8745 -14.4202
upperneck 30.2866 -17.4912 14.9049
head 14.8565 -7.63027 5.58672
rclavicle -1.25918e-014 1.80397e-014
rhumerus -44.1854 -28.4356 -66.565
rradius 31.442
rwrist 7.10095
rhand -22.7304 8.03617
rfingers 7.12502
rthumb 3.70343 -21.9114
lclavicle -1.25918e-014 1.80397e-014
lhumerus -32.8134 8.07341 78.3736
lradius 29.2491
lwrist -6.36013
lhand -19.4812 29.4902
lfingers 7.12502
lthumb 6.84063 59.3597
rfemur -8.55548 -2.22178 4.41454
rtibia 27.8656
rfoot 2.63495 -13.2587
rtoes 25.2098
lfemur -0.0347471 -3.68249 -13.6837
ltibia 20.9149
lfoot -11.1339 2.80776
ltoes -16.9544
369
root 3.39628 17.937 8.28285 354.766 18.3564 357.134
lowerback 11.5447 0.123472 -3.71407
upperback 1.06673 -0.18698 2.02697
thorax -5.34138 0.0168477 4.26335
lowerneck -9.62235 -10.8572 -14.4913
upperneck 30.1976 -17.4532 14.9407
head 14.8105 -7.62297 5.61931
rclavicle -2.53311e-014 -9.41742e-015
rhumerus -44.364 -28.3811 -66.5425
rradius 31.5119
rwrist 6.86639
rhand -22.76 8.17731
rfingers 7.12502
rthumb 3.67483 -21.7708
lclavicle -2.53311e-014 -9.41742e-015
lhumerus -32.9535 7.86371 78.3298
lradius 29.4001
lwrist -5.80144
lhand -18.9857 29.2173
lfingers 7.12502
lthumb 7.31899 59.0707
rfemur -8.29226 -1.7943 4.20391
rtibia 27.6113
rfoot 2.96867 -14.7867
rtoes 28.3548
lfemur 0.283386 -3.6341 -13.3371
ltibia 20.5423
lfoot -10.9462 3.00797
ltoes -17.6908
370
root 3.33398 17.9296 8.3204 354.739 18.1152 357.311
lowerback 11.588 0.170453 -3.74357
upperback 1.09113 -0.132445 1.97774
thorax -5.34533 0.0434803 4.21958
lowerneck -9.67682 -10.865 -14.6308
upperneck 30.2038 -17.4242 14.9236
head 14.834 -7.62559 5.63862
rclavicle -2.80007e-014 -1.09332e-014
rhumerus -44.5422 -28.3985 -66.4748
rradius 31.6576
rwrist 6.88818
rhand -22.8214 8.18404
rfingers 7.12502
rthumb 3.61559 -21.765
lclavicle -2.80007e-014 -1.09332e-014
lhumerus -33.0395 7.71263 78.2884
lradius 29.4818
lwrist -5.20703
lhand -18.9756 28.6907
lfingers 7.12502
lthumb 7.32875 58.5438
rfemur -7.92713 -1.60283 3.66977
rtibia 27.3876
rfoot 3.07414 -16.0878
rtoes 31.2484
lfemur 0.634628 -3.64803 -13.31
ltibia 20.2512
lfoot -10.8087 3.28115
ltoes -18.4649
371
root 3.27113 17.9216 8.35563 354.764 17.9222 357.562
lowerback 11.586 0.213608 -3.86886
upperback 1.13875 -0.0928063 1.94309
thorax -5.29781 0.0633694 4.24743
lowerneck -9.92026 -10.8876 -14.7372
upperneck 30.3045 -17.3833 14.8081
head 14.9247 -7.61742 5.60799
rclavicle -1.07584e-014 -7.57867e-015
rhumerus -44.5609 -28.3819 -66.4039
rradius 31.7898
rwrist 7.00098
rhand -22.8927 8.01804
rfingers 7.12502
rthumb 3.54669 -21.9322
lclavicle -1.07584e-014 -7.57867e-015
lhumerus -32.9299 7.95714 78.1575
lradius 29.3493
lwrist -5.26078
lhand -19.3748 28.3599
lfingers 7.12502
lthumb 6.94334 58.226
rfemur -7.63996 -1.75261 3.09711
rtibia 27.1876
rfoot 3.81623 -16.6236
rtoes 31.001
lfemur 0.892686 -3.67924 -13.3606
ltibia 20.039
lfoot -10.6744 3.51633
ltoes -18.8956
372
root 3.20166 17.9153 8.39119 354.741 17.6957 357.672
lowerback 11.6132 0.263015 -3.91374
upperback 1.14536 -0.0349864 1.92375
thorax -5.31186 0.0928504 4.24355
lowerneck -10.0906 -10.8751 -14.6435
upperneck 30.3509 -17.3043 14.6107
head 14.93 -7.58413 5.51723
rclavicle 3.0489e-014 -1.34894e-014
rhumerus -44.6184 -28.3953 -66.3043
rradius 31.7703
rwrist 7.11064
rhand -22.8429 8.04472
rfingers 7.12502
rthumb 3.59485 -21.9047
lclavicle 3.0489e-014 -1.34894e-014
lhumerus -32.8743 8.27201 77.9178
lradius 29.2144
lwrist -5.73996
lhand -19.6658 28.3031
lfingers 7.12502
lthumb 6.66242 58.1783
rfemur -7.39784 -1.76944 2.74506
rtibia 27.0256
rfoot 4.71288 -17.0311
rtoes 29.8371
lfemur 1.15561 -3.72378 -13.2228
ltibia 19.8745
lfoot -10.5366 3.77676
ltoes -19.1236
373
root 3.13146 17.9094 8.43451 354.669 17.3773 357.661
lowerback 11.5428 0.305901 -3.81336
upperback 1.14247 0.034711 1.88336
thorax -5.28269 0.123783 4.13166
lowerneck -9.93427 -10.7819 -14.5852
upperneck 30.2231 -17.1919 14.6627
head 14.8108 -7.53537 5.55507
rclavicle 1.38023e-014 -1.06226e-014
rhumerus -44.8351 -28.4005 -66.2548
rradius 31.8327
rwrist 7.25373
rhand -22.7292 8.2895
rfingers 7.12502
rthumb 3.70464 -21.658
lclavicle 1.38023e-014 -1.06226e-014
lhumerus -32.9985 8.53571 77.5583
lradius 29.1997
lwrist -6.22613
lhand -19.5529 29.0005
lfingers 7.12502
lthumb 6.77141 58.8722
rfemur -7.10508 -1.48116 2.55005
rtibia 26.9024
rfoot 5.18929 -17.5344
rtoes 30.2038
lfemur 1.46129 -3.70979 -12.9352
ltibia 19.7622
lfoot -10.5103 4.04324
ltoes -19.1389
374
root 3.05856 17.8998 8.47752 354.685 17.1174 357.736
lowerback 11.4425 0.333444 -3.80583
upperback 1.12437 0.0720082 1.82684
thorax -5.24947 0.140777 4.06077
lowerneck -9.83004 -10.7115 -14.5131
upperneck 30.1808 -17.0959 14.6309
head 14.7343 -7.49657 5.5523
rclavicle 4.56995e-014 -8.77137e-015
rhumerus -44.9901 -28.4062 -66.2486
rradius 32.0079
rwrist 7.29111
rhand -22.565 8.3578
rfingers 7.12502
rthumb 3.86322 -21.5869
lclavicle 4.56995e-014 -8.77137e-015
lhumerus -33.1401 8.65682 77.2517
lradius 29.1579
lwrist -6.16674
lhand -19.672 29.3593
lfingers 7.12502
lthumb 6.65649 59.2347
rfemur -6.81958 -1.25308 2.27336
rtibia 26.8161
rfoot 5.66085 -17.6241
rtoes 30.7763
lfemur 1.59922 -3.76115 -12.7483
ltibia 19.7204
lfoot -10.4359 4.3778
ltoes -19.4445
